<svg viewBox="0 0 1024 1024" xmlns="http://www.w3.org/2000/svg">
  <path d="M789.060267 206.190933c-4.206933 3.899733-11.707733 5.5552-10.478934 13.9776-10.9568 8.0384-20.061867 18.525867-29.6448 28.1088l-50.7136 45.2608c-7.1168-6.766933-44.202667-39.936-48.913066-41.924266 6.050133-4.514133 5.128533-14.609067 8.763733-20.932267 17.143467-29.824 40.2944-54.365867 50.6368-87.381333l4.206933 2.491733c26.641067-40.081067 50.961067-90.999467 83.072-126.592 29.44-32.64 72.6016-20.420267 96.059734 12.3904 19.9424 27.895467 7.714133 58.453333-12.066134 82.090667-23.082667 27.579733-64.750933 68.2752-90.914133 92.526933z" fill="#85AD3F" />
  <path d="M712.192 129.322667l-3.114667 2.167466-0.375466 8.311467c-0.3072 1.092267 0.324267 2.449067 0 3.490133-10.3424 33.015467-33.493333 57.5488-50.6368 87.381334-3.6352 6.3232-2.7136 16.418133-8.763734 20.932266-13.533867-5.725867-23.202133-13.7728-31.445333-17.467733 1.0496-37.794133-1.348267-75.904-0.1536-113.706667 0.196267-6.144 3.524267-10.948267 3.797333-17.169066 1.6128-36.599467-11.741867-75.3664 28.859734-93.431467C667.434667 2.2272 680.917333 0.648533 698.282667 8.704c15.2832 7.082667 28.9536 28.706133 28.117333 45.550933-0.9984 20.181333-9.736533 54.007467-14.208 75.0592z" fill="#76A13C" />
  <path d="M729.668267 328.482133c-4.437333-6.621867-11.9552-14.830933-17.467734-20.9664-5.282133-5.879467-8.507733-8.7808-13.9776-13.9776l50.7136-45.2608c9.582933-9.582933 18.688-20.0704 29.6448-28.1088 2.269867-1.664 8.362667-5.8112 10.478934-6.9888 17.3056-9.634133 47.402667-22.3744 66.3296-29.755733 8.874667-3.456 23.790933-9.514667 32.5632-8.123733 17.5872 2.798933 38.382933 21.7344 40.866133 39.6288 3.319467 23.953067-0.554667 48.4608-24.388267 59.460266-41.250133 19.0464-108.8512 31.4368-154.632533 44.526934-7.150933 2.048-17.553067 1.3312-20.138667 9.565866z" fill="#719B3C" />
  <path d="M789.060267 213.179733c-2.116267 1.1776-8.2176 5.3248-10.478934 6.9888-1.220267-8.4224 6.272-10.077867 10.478934-13.9776v6.9888z" fill="#DCE8C5" />
  <path d="M708.701867 139.810133l0.375466-8.311466 3.114667-2.167467c-1.262933 5.956267-2.952533 8.558933-3.490133 10.478933z" fill="#85AD3F" />
  <path d="M617.856 234.146133c8.2432 3.694933 17.92 11.741867 31.445333 17.467734 4.7104 1.9968 41.796267 35.165867 48.913067 41.924266 5.469867 5.1968 8.695467 8.098133 13.9776 13.9776-4.778667 10.897067-2.312533 21.7344-4.164267 32.529067-5.2224 30.5664-40.234667 81.706667-59.630933 106.513067-0.836267 1.066667-4.360533 0.366933-5.1968 1.4336-4.394667 5.623467-6.826667 15.5648-13.397333 20.078933-7.953067 2.261333-32.648533-18.2528-36.360534-5.0176-6.135467 12.808533 19.4048 23.978667 17.3312 31.172267L506.1376 613.341867c-13.755733 7.2448-16.6656-15.914667-31.556267-12.330667-5.111467 11.460267 2.756267 20.736 9.9072 29.6448 0.017067 2.722133-20.394667 29.858133-23.7824 31.581867-10.4448 5.316267-25.019733-6.5792-27.963733 3.5072-2.9184 10.001067 6.1696 16.9728 6.144 20.855466-0.0512 7.9104-46.173867 49.800533-55.210667 59.3408-51.0976 53.9648-102.289067 110.523733-158.839466 159.112534-24.8832 21.376-74.606933 62.1824-103.1936 74.999466-6.536533 2.935467-17.032533 4.4544-24.405334 5.2992-0.008533-0.187733-2.628267-0.699733-3.003733-2.2784-0.682667-2.858667 2.705067-6.647467 2.9184-10.0352 7.287467-112.8448 110.8992-287.3344 167.261867-388.292266 54.8864-98.312533 110.225067-192.4608 175.240533-284.228267l80.213333 43.8272 26.589867 22.365867c13.422933-2.056533 9.130667-15.4624 3.165867-24.1664-13.3632-19.498667-59.502933-45.201067-81.928534-54.3232-5.435733-2.210133-12.16-5.9392-17.553066-1.681067 11.511467-15.786667 13.8752-23.867733 29.7472-38.272 27.409067-24.8832 48.964267-31.8976 87.2192-28.032 10.820267 1.092267 41.0624 9.557333 50.7392 13.9008z" fill="#F58931" />
  <path d="M729.668267 328.482133c7.125333 10.641067 17.834667 29.320533 22.766933 41.873067 28.501333 72.5248-14.395733 109.371733-57.770667 158.958933-106.2912 121.5232-225.826133 246.263467-347.656533 354.645334-43.281067 38.5024-90.7008 82.0224-140.2368 111.3344-23.509333 13.9008-70.510933 40.1664-95.445333 23.159466-15.9232-10.8544-13.141333-16.5376-14.071467-33.1008 7.3728-0.8448 17.860267-2.363733 24.405333-5.2992 28.5952-12.817067 78.318933-53.623467 103.1936-74.999466 56.5504-48.5888 107.741867-105.156267 158.839467-159.112534 9.0368-9.5488 55.159467-51.4304 55.210667-59.3408 0.0256-3.8912-9.0624-10.862933-6.144-20.855466 2.944-10.077867 17.518933 1.8176 27.963733-3.5072 3.387733-1.723733 23.790933-28.859733 23.7824-31.581867-7.150933-8.900267-15.018667-18.184533-9.9072-29.6448 14.882133-3.584 17.800533 19.584 31.556267 12.330667l104.635733-119.1168c2.0736-7.1936-23.466667-18.372267-17.3312-31.172267 3.712-13.226667 28.407467 7.278933 36.360533 5.0176 6.570667-4.522667 9.002667-14.455467 13.397334-20.078933 0.836267-1.066667 4.360533-0.366933 5.1968-1.4336 19.396267-24.8064 54.408533-75.946667 59.630933-106.513067 1.8432-10.794667-0.6144-21.632 4.164267-32.529067 5.512533 6.135467 13.038933 14.336 17.467733 20.9664z" fill="#ED7927" />
  <path d="M439.662933 300.535467c3.7376-5.282133 7.1424-9.3952 10.478934-13.9776 5.4016-4.258133 12.125867-0.529067 17.553066 1.681066 22.4256 9.1136 68.5568 34.824533 81.928534 54.3232 5.9648 8.704 10.257067 22.109867-3.165867 24.1664l-26.589867-22.365866-80.213333-43.8272z" fill="#EA7924" />
</svg>
